<?xml version="1.0" standalone="no"?><!DOCTYPE svg PUBLIC "-//W3C//DTD SVG 1.1//EN" "http://www.w3.org/Graphics/SVG/1.1/DTD/svg11.dtd"><svg t="1682691261188" class="icon" viewBox="0 0 1024 1024" version="1.1" xmlns="http://www.w3.org/2000/svg" p-id="29211" xmlns:xlink="http://www.w3.org/1999/xlink" width="200" height="200"><path d="M0 0m113.777778 0l796.444444 0q113.777778 0 113.777778 113.777778l0 796.444444q0 113.777778-113.777778 113.777778l-796.444444 0q-113.777778 0-113.777778-113.777778l0-796.444444q0-113.777778 113.777778-113.777778Z" fill="#86C0B1" p-id="29212"></path><path d="M757.76 592.099556c-10.884741-57.306074-14.108444-115.674074-21.997037-173.397334-6.788741-49.682963-16.19437-103.689481-46.876444-144.839111-61.553778-82.602667-202.676148-90.263704-288.237038-44.980148A174.459259 174.459259 0 0 0 364.088889 254.369185c-40.429037 37.091556-55.637333 93.828741-65.991111 145.787259-12.667259 63.563852-18.394074 128.265481-30.340741 191.943112-15.853037 83.247407-67.204741 104.334222-67.204741 104.334222s12.325926 35.877926 48.355556 43.804444c9.216 2.048 20.745481-22.945185 24.538074-31.857778l-15.890963 38.456889C271.928889 800.843852 338.602667 788.859259 338.602667 788.859259l5.878518-60.264296h0.379259l13.880889 57.685333c58.861037 3.792593 130.465185-64.018963 153.97926-88.101926 23.514074 24.082963 95.118222 91.856593 153.979259 88.101926l13.880889-57.685333h0.379259L686.838519 788.859259s66.673778 11.870815 81.123555-42.135703l-15.890963-38.456889c3.792593 8.912593 15.17037 33.905778 24.538074 31.857777 36.02963-7.926519 48.355556-43.804444 48.355556-43.804444s-51.275852-20.973037-67.204741-104.220444z" fill="#48494F" p-id="29213"></path><path d="M805.508741 780.515556c-57.306074-63.070815-187.467852-113.512296-188.79526-109.985186s-32.161185 14.866963-102.779259 14.942815c-68.266667 0-98.607407-11.567407-99.972741-14.942815s-138.164148 46.990222-195.470222 109.985186C164.333037 840.173037 158.037333 970.903704 154.699852 1024h714.600296c-3.337481-53.096296-9.633185-183.826963-63.791407-243.484444z" fill="#D1E3FF" p-id="29214"></path><path d="M478.245926 744.675556h72.097185V1024H478.245926z" fill="#B1CEFA" p-id="29215"></path><path d="M601.201778 574.160593s5.30963-46.26963 6.561185-49.607112c-2.161778 1.592889-8.192 4.93037-10.277926 6.637038-13.274074 10.884741-48.31763 14.601481-84.081778 13.767111-35.726222 0.83437-70.769778-2.88237-84.043852-13.767111-2.123852-1.706667-8.116148-5.044148-10.277926-6.637038 1.251556 3.337481 6.599111 49.645037 6.561186 49.607112 1.327407 84.726519-13.653333 96.900741-21.124741 124.73837 23.779556 44.069926 58.292148 0 82.033778 44.032 5.157926 9.519407 48.583111 9.519407 53.741037 0 23.74163-44.107852 58.254222 0 82.033778-44.032-7.471407-27.83763-22.452148-40.011852-21.124741-124.73837z" fill="#FAC396" p-id="29216"></path><path d="M422.987852 636.283259c-0.606815 29.544296 13.387852 58.55763 36.257185 80.137482a132.209778 132.209778 0 0 0 40.353185 26.093037c3.792593 1.479111 15.17037 2.123852 12.174222 7.585185a11.377778 11.377778 0 0 1-4.209777 3.792593 98.948741 98.948741 0 0 0-26.282667 26.548148c-7.585185 10.467556-16.535704 19.873185-24.272593 30.34074a12.667259 12.667259 0 0 1-7.016296 5.650963c-5.082074 1.137778-4.740741-2.730667-5.95437-5.006222a84.764444 84.764444 0 0 0-7.585185-11.377778l-18.962963-24.765629c-10.998519-14.373926-22.110815-28.975407-28.406519-45.511111s-7.35763-35.043556 1.592889-50.479408c8.154074-14.070519 23.817481-24.310519 30.340741-38.987852" fill="#FFFFFF" p-id="29217"></path><path d="M603.932444 636.283259c0.568889 28.216889-12.212148 55.978667-33.261037 77.217185a132.740741 132.740741 0 0 1-37.925926 26.548149c-5.650963 2.616889-12.818963 2.806519-18.128592 6.106074-8.609185 5.385481 7.319704 9.860741 11.605333 12.894814 20.821333 14.791111 33.905778 34.702222 46.26963 55.258075 1.024 1.744593 3.792593 3.185778 5.423407 2.048a4.399407 4.399407 0 0 0 1.289482-1.365334 152.082963 152.082963 0 0 1 13.236148-19.26637c5.916444-6.447407 11.643259-13.425778 16.914963-20.290371 10.960593-14.373926 22.072889-28.975407 28.368592-45.511111s7.35763-35.043556-1.592888-50.479407c-8.154074-14.070519-23.779556-24.310519-30.340741-38.987852" fill="#FFFFFF" p-id="29218"></path><path d="M513.21363 770.503111m-17.028741 0a17.028741 17.028741 0 1 0 34.057481 0 17.028741 17.028741 0 1 0-34.057481 0Z" fill="#8BB0EB" p-id="29219"></path><path d="M513.21363 865.393778m-17.028741 0a17.028741 17.028741 0 1 0 34.057481 0 17.028741 17.028741 0 1 0-34.057481 0Z" fill="#8BB0EB" p-id="29220"></path><path d="M357.755259 538.548148c17.445926 46.042074 58.861037 98.607407 116.242963 118.518519 70.390519 24.651852 128.303407-21.086815 161.412741-66.56 34.778074-47.786667 38.191407-115.332741 29.354667-168.922074-6.371556-38.684444-22.755556-79.644444-62.994963-102.058667-28.406519-15.739259-65.232593-19.797333-99.51763-15.815111s-66.522074 15.17037-97.09037 28.368592c-28.899556 12.288-47.179852 37.925926-55.106371 63.374223a113.777778 113.777778 0 0 0-4.133926 32.502518c-0.796444 34.436741-1.441185 75.738074 11.832889 110.592z" fill="#FFDABE" p-id="29221"></path><path d="M323.280593 522.884741c13.50163 26.927407 32.047407 50.820741 45.966222 27.799703 7.926519-13.160296 2.199704-31.364741-2.465185-44.562963-4.058074-11.605333-5.30963-29.127111-12.288-39.025777-11.946667-16.877037-54.044444-18.962963-49.000297 9.709037a232.561778 232.561778 0 0 0 17.78726 46.08zM694.575407 522.884741c-13.539556 26.927407-32.047407 50.820741-45.966222 27.799703-7.964444-13.160296-2.23763-31.364741 2.427259-44.562963 4.096-11.605333 5.30963-29.127111 12.325926-39.025777 11.908741-16.877037 54.006519-18.962963 49.000297 9.709037a235.140741 235.140741 0 0 1-17.78726 46.08z" fill="#FFDABE" p-id="29222"></path><path d="M330.638222 453.632s62.767407 43.84237 177.758815-78.961778c0 0 72.779852 83.437037 153.637926 86.20563s70.276741-229.944889-137.443556-234.458074c-247.959704-5.385481-193.953185 227.214222-193.953185 227.214222z" fill="#48494F" p-id="29223"></path></svg>