<?xml version="1.0" standalone="no"?><!DOCTYPE svg PUBLIC "-//W3C//DTD SVG 1.1//EN" "http://www.w3.org/Graphics/SVG/1.1/DTD/svg11.dtd"><svg t="1682691250034" class="icon" viewBox="0 0 1024 1024" version="1.1" xmlns="http://www.w3.org/2000/svg" p-id="28683" xmlns:xlink="http://www.w3.org/1999/xlink" width="200" height="200"><path d="M0 0m113.777778 0l796.444444 0q113.777778 0 113.777778 113.777778l0 796.444444q0 113.777778-113.777778 113.777778l-796.444444 0q-113.777778 0-113.777778-113.777778l0-796.444444q0-113.777778 113.777778-113.777778Z" fill="#86C0B1" p-id="28684"></path><path d="M845.179259 780.515556c-65.042963-63.070815-212.80237-113.512296-214.319407-109.985186s-36.522667 14.866963-116.660148 14.942815c-77.444741 0-111.995259-11.567407-113.474371-14.942815s-156.86163 46.990222-221.904592 109.985186c-61.477926 59.657481-68.645926 190.388148-72.438519 243.484444H917.807407c-3.792593-53.096296-11.150222-183.826963-72.628148-243.484444z" fill="#D1E3FF" p-id="28685"></path><path d="M478.245926 744.675556h72.097185V1024H478.245926z" fill="#B1CEFA" p-id="28686"></path><path d="M604.046222 574.160593s5.461333-46.26963 6.750815-49.607112c-2.199704 1.592889-8.419556 4.93037-10.581333 6.637038-13.729185 10.884741-49.910519 14.601481-86.812445 13.767111-36.864 0.83437-73.045333-2.88237-86.774518-13.767111-2.161778-1.706667-8.38163-5.044148-10.581334-6.637038 1.289481 3.337481 6.788741 49.645037 6.750815 49.607112 1.365333 84.726519-14.108444 96.900741-21.807407 124.73837 24.538074 44.069926 60.150519 0 84.726518 44.032 5.271704 9.519407 50.138074 9.519407 55.409778 0 24.538074-44.107852 60.188444 0 84.726519-44.032-7.661037-27.83763-23.172741-40.011852-21.807408-124.73837z" fill="#FAC396" p-id="28687"></path><path d="M422.001778 617.092741a135.661037 135.661037 0 0 0 36.636444 92.880592 133.764741 133.764741 0 0 0 40.808297 30.340741c3.792593 1.706667 15.17037 2.465185 12.325925 8.798815a11.794963 11.794963 0 0 1-4.285629 4.361481c-11.377778 8.040296-19.152593 19.493926-26.548148 30.947556-7.812741 12.136296-16.725333 23.058963-24.538074 35.081481a13.425778 13.425778 0 0 1-7.092149 6.561186c-5.12 1.289481-4.778667-3.147852-6.030222-5.802667a100.314074 100.314074 0 0 0-7.585185-13.084445l-18.962963-28.672c-11.112296-16.687407-22.33837-33.60237-28.709926-52.565333s-7.585185-40.618667 1.592889-58.481778c8.267852-16.346074 24.082963-28.178963 30.833778-45.169777" fill="#FFFFFF" p-id="28688"></path><path d="M604.880593 617.092741a137.746963 137.746963 0 0 1-71.831704 120.263111c-5.688889 3.072-12.932741 3.26163-18.280296 7.092148-8.722963 6.257778 7.35763 11.377778 11.719111 14.942815 21.048889 17.142519 34.133333 40.239407 46.762666 64.056889 1.024 2.010074 3.792593 3.792593 5.461334 2.389333a4.93037 4.93037 0 0 0 1.289481-1.630815 178.024296 178.024296 0 0 1 13.387852-22.300444c5.992296-7.585185 11.794963-15.54963 17.104593-23.514074 11.07437-16.687407 22.300444-33.60237 28.709926-52.565334s7.585185-40.618667-1.630815-58.481777c-8.229926-16.346074-24.082963-28.178963-30.833778-45.169778" fill="#FFFFFF" p-id="28689"></path><path d="M513.21363 770.503111m-17.028741 0a17.028741 17.028741 0 1 0 34.057481 0 17.028741 17.028741 0 1 0-34.057481 0Z" fill="#8BB0EB" p-id="28690"></path><path d="M513.21363 865.393778m-17.028741 0a17.028741 17.028741 0 1 0 34.057481 0 17.028741 17.028741 0 1 0-34.057481 0Z" fill="#8BB0EB" p-id="28691"></path><path d="M330.676148 465.540741s-36.560593-52.603259-6.295704-126.596741 185.381926-121.362963 185.381926-121.362963l192.360297 62.312296s18.280296 189.62963-23.969186 223.952593-347.477333-38.305185-347.477333-38.305185z" fill="#48494F" p-id="28692"></path><path d="M346.30163 540.596148c19.304296 46.042074 65.042963 98.607407 128.455111 118.518519 77.748148 24.651852 141.691259-21.086815 178.251852-66.56 38.456889-47.786667 42.211556-115.332741 32.426666-168.922074-7.054222-38.684444-25.031111-79.644444-69.556148-102.058667-31.364741-15.739259-72.059259-19.797333-109.985185-15.815111s-73.500444 15.17037-107.254519 28.368592a104.220444 104.220444 0 0 0-60.871111 63.374223 105.396148 105.396148 0 0 0-4.551111 32.502518c-0.682667 34.285037-1.554963 75.58637 13.084445 110.592z" fill="#FFDABE" p-id="28693"></path><path d="M320.056889 515.299556c12.667259 26.927407 30.037333 50.820741 43.083852 27.799703 7.585185-13.160296 2.085926-31.364741-2.275556-44.562963-3.792593-11.605333-4.968296-29.127111-11.377778-39.025777-11.377778-16.877037-50.669037-18.962963-45.966222 9.709037a245.684148 245.684148 0 0 0 16.535704 46.08zM703.715556 515.299556c-12.667259 26.927407-30.037333 50.820741-43.083852 27.799703-7.585185-13.160296-2.085926-31.364741 2.275555-44.562963 3.792593-11.605333 4.968296-29.127111 11.377778-39.025777 11.188148-16.877037 50.669037-18.962963 45.928296 9.709037a241.967407 241.967407 0 0 1-16.497777 46.08z" fill="#FFDABE" p-id="28694"></path><path d="M724.385185 220.463407a96.369778 96.369778 0 0 0-122.804148-89.391407 96.369778 96.369778 0 0 0-168.315259 0.417185 96.407704 96.407704 0 0 0-124.397037 88.974222 88.936296 88.936296 0 1 0 92.918518 140.325926 89.353481 89.353481 0 0 0 9.026371 0.455111 96.256 96.256 0 0 0 79.644444-41.718518 97.09037 97.09037 0 0 0 27.154963 3.792593 95.952593 95.952593 0 0 0 25.751704-3.527112 96.256 96.256 0 0 0 79.151407 41.453037 88.25363 88.25363 0 0 0 9.026371-0.455111 88.936296 88.936296 0 1 0 92.918518-140.325926z" fill="#48494F" p-id="28695"></path><path d="M687.559111 423.632593a189.136593 189.136593 0 0 0-14.829037-41.946074c-2.161778 49.000296-14.753185 162.740148-84.612741 159.288888-89.808593-4.361481-133.802667 6.750815-173.89037-3.413333s-60.681481-152.500148-60.681482-152.500148l-10.429629-0.417185c-2.616889 5.195852-6.106074 8.647111-7.585185 12.781037a105.396148 105.396148 0 0 0-4.551111 32.502518c-0.227556 10.998519-0.455111 22.755556-0.227556 34.702223a495.236741 495.236741 0 0 0 17.066667 79.644444c20.138667 45.093926 65.042963 95.269926 126.748444 114.801778 77.748148 24.651852 141.691259-21.086815 178.251852-66.56a151.438222 151.438222 0 0 0 18.659556-30.07526c18.24237-47.824593 18.962963-71.035259 20.366222-86.622814a283.003259 283.003259 0 0 0-4.28563-52.186074z" fill="#48494F" p-id="28696"></path></svg>