<?xml version="1.0" standalone="no"?><!DOCTYPE svg PUBLIC "-//W3C//DTD SVG 1.1//EN" "http://www.w3.org/Graphics/SVG/1.1/DTD/svg11.dtd"><svg t="1682691257455" class="icon" viewBox="0 0 1024 1024" version="1.1" xmlns="http://www.w3.org/2000/svg" p-id="29034" xmlns:xlink="http://www.w3.org/1999/xlink" width="200" height="200"><path d="M0 0m113.777778 0l796.444444 0q113.777778 0 113.777778 113.777778l0 796.444444q0 113.777778-113.777778 113.777778l-796.444444 0q-113.777778 0-113.777778-113.777778l0-796.444444q0-113.777778 113.777778-113.777778Z" fill="#D9A7BB" p-id="29035"></path><path d="M616.713481 583.452444c-2.313481 1.479111-8.798815 4.513185-11.07437 6.106075-30.606222 21.352296-168.808296 12.515556-191.412148-2.503112 0 13.312 5.082074 65.118815 5.006222 78.430815 0 23.893333-11.567407 46.91437-32.768 87.22963 8.040296 12.212148 41.718519 30.340741 49.645037 42.514963 0 0 15.17037 35.574519 15.170371 35.65037 14.032593 22.300444 14.070519 0 28.254814 22.300445 10.353778 16.156444 20.48 15.853037 31.781926 31.175111l2.768593 1.213629c6.712889-10.657185 23.058963-11.377778 29.771852-21.921185 25.6-40.429037 62.767407-79.644444 88.405333-120.111407-8.040296-25.562074-24.196741-36.712296-22.755555-114.460445 0.075852-0.113778 5.840593-42.590815 7.205925-45.624889z" fill="#F7DECB" p-id="29036"></path><path d="M812.449185 804.750222c-58.102519-52.679111-154.244741-78.999704-155.496296-76.117333s-75.320889 12.47763-146.962963 12.515555c-69.176889 0-135.964444-9.671111-137.253926-12.515555s-97.46963 23.438222-155.496296 76.117333C162.133333 854.584889 155.761778 979.512889 152.348444 1024h724.802371c-3.375407-44.487111-9.784889-169.415111-64.70163-219.249778z" fill="#C1E2D7" p-id="29037"></path><path d="M683.766519 428.183704c-11.681185 5.764741-19.986963 17.21837-25.106963 29.202963 14.677333-64.853333 11.150222-143.625481-46.155852-176.31763-60.150519-34.133333-159.895704-33.033481-211.702519 12.932741-34.133333 30.340741-59.998815 97.28-34.967704 162.398815-5.650963-11.377778-10.315852-28.86163-23.096888-28.065186-40.429037 2.503111-31.326815 51.693037-21.731556 70.162963s27.951407 32.805926 48.583111 33.678223a11.681185 11.681185 0 0 1 7.130074 1.706666A9.860741 9.860741 0 0 1 379.259259 538.548148c10.733037 32.616296 20.745481 59.847111 48.583111 82.337185s65.194667 37.432889 102.020741 31.440593c43.463111-7.205926 87.722667-34.853926 103.348148-77.748148 4.816593-13.274074 3.299556-32.730074 17.559704-40.315259a24.272593 24.272593 0 0 1 8.229926-2.010075c21.200593-3.299556 37.925926-18.773333 47.179852-37.546666a80.630519 80.630519 0 0 0 8.495407-42.666667c-1.403259-17.635556-19.418074-29.468444-30.909629-23.855407z" fill="#FEEFE4" p-id="29038"></path><path d="M456.969481 295.253333l0.265482-0.417185c2.010074-2.958222 25.296593-34.702222 72.059259-13.387852 33.526519 15.17037 25.713778 38.949926 48.090074 74.638223 28.558222 45.511111 85.750519 22.755556 66.673778 144.118518-0.18963 1.175704 2.351407-0.493037 4.664889 0s11.643259-47.634963 11.643259-47.634963a2.085926 2.085926 0 0 1 0.227556-0.682667 78.961778 78.961778 0 0 1 26.548148-25.524148 3.792593 3.792593 0 0 0 1.896296-3.034074c1.403259-21.31437 40.922074-193.877333-115.067259-245.266963-36.408889-12.022519-92.918519-10.922667-143.284148 46.914371a4.209778 4.209778 0 0 1-3.451259 1.365333c-10.922667-1.099852-65.118815-4.058074-89.960297 36.408889s0.568889 143.815111 1.820445 163.422815c0 1.85837 1.517037 1.441185 3.375407 1.744592 4.93037 0.758519 7.281778-4.361481 15.17037 20.745482a3.489185 3.489185 0 0 1 0.18963 1.061926s12.060444 47.141926 14.52563 46.459259c2.010074-0.568889 7.319704 1.934222 6.902518 0-3.185778-15.17037-29.658074-94.39763 7.585185-139.036445 20.897185-24.576 54.802963-29.961481 70.125037-61.895111z" fill="#FB9791" p-id="29039"></path><path d="M596.992 1024l-66.939259-233.092741-42.439111 1.40326c-1.024 2.996148-54.08237 182.347852-68.683852 231.689481z" fill="#88AFF6" p-id="29040"></path><path d="M553.718519 768.227556l-15.170371 32.237037a17.521778 17.521778 0 0 1-16.308148 10.126222l-27.192889-0.606815a17.521778 17.521778 0 0 1-16.270222-12.09837l-10.543408-32.199111a17.559704 17.559704 0 0 1 16.877038-23.021038l52.717037 0.606815a17.559704 17.559704 0 0 1 15.890963 24.95526z" fill="#88AFF6" p-id="29041"></path><path d="M510.445037 743.006815c-9.102222 9.064296-29.354667 26.965333-67.584 50.782815a5.385481 5.385481 0 0 1-4.513185 0.568889c-9.784889-3.109926-46.876444-17.863111-72.514371-67.621926a22.755556 22.755556 0 0 1 8.192-29.582223l14.260149-8.760889a26.548148 26.548148 0 0 1 30.34074 1.592889A265.481481 265.481481 0 0 0 508.207407 734.01837a5.385481 5.385481 0 0 1 2.23763 8.988445z" fill="#FFFFFD" p-id="29042"></path><path d="M512.379259 743.006815c9.102222 9.064296 29.392593 26.965333 67.584 50.782815a5.423407 5.423407 0 0 0 4.513185 0.568889c9.822815-3.109926 46.91437-17.863111 72.514371-67.621926a22.755556 22.755556 0 0 0-8.154074-29.582223l-14.260148-8.760889a26.548148 26.548148 0 0 0-30.151112 1.592889 265.481481 265.481481 0 0 1-89.694814 44.032 5.385481 5.385481 0 0 0-2.351408 8.988445z" fill="#FFFFFD" p-id="29043"></path><path d="M721.389037 466.147556c-5.916444 42.439111-39.518815 72.552296-64.474074 68.873481s-12.743111-37.015704-6.826667-79.454815 3.299556-77.899852 28.141037-74.221037 49.038222 42.363259 43.159704 84.802371z" fill="#2B294A" p-id="29044"></path><path d="M724.043852 465.995852c-5.688889 45.207704-26.320593 57.268148-45.852445 54.347852s-9.974519-29.013333-5.347555-62.312297 2.616889-61.174519 22.110815-58.292148 34.512593 23.058963 29.089185 66.256593z" fill="#4F4D74" p-id="29045"></path><path d="M298.742519 466.488889c6.485333 42.477037 40.466963 72.059259 65.34637 68.266667s12.250074-37.167407 5.802667-79.644445-4.323556-77.861926-29.165037-73.841778S292.295111 424.277333 298.742519 466.488889z" fill="#2B294A" p-id="29046"></path><path d="M296.087704 466.488889c6.257778 45.131852 27.079111 56.888889 46.573037 53.741037s9.595259-29.165037 4.513185-62.388148-3.375407-61.136593-22.755556-57.950815-34.285037 23.476148-28.330666 66.597926z" fill="#4F4D74" p-id="29047"></path><path d="M349.752889 399.625481c20.138667-87.002074 84.043852-150.603852 159.857778-150.603851s139.757037 63.601778 159.857777 150.603851h20.062815c-11.036444-103.23437-87.22963-183.182222-179.920592-183.182222s-168.884148 79.947852-179.920593 183.182222zM504.111407 617.434074c-131.413333 0-149.238519-96.521481-149.390222-97.545481l7.585185-1.289482c0.682667 4.058074 18.62163 99.252148 158.833778 90.718815l0.455111 7.585185c-6.106074 0.379259-11.908741 0.530963-17.483852 0.530963z" fill="#2B294A" p-id="29048"></path><path d="M480.180148 598.129778m13.918815 0l25.979259 0q13.918815 0 13.918815 13.918815l0 0.037926q0 13.918815-13.918815 13.918814l-25.979259 0q-13.918815 0-13.918815-13.918814l0-0.037926q0-13.918815 13.918815-13.918815Z" fill="#2B294A" p-id="29049"></path></svg>