<?xml version="1.0" standalone="no"?><!DOCTYPE svg PUBLIC "-//W3C//DTD SVG 1.1//EN" "http://www.w3.org/Graphics/SVG/1.1/DTD/svg11.dtd"><svg t="1682691243044" class="icon" viewBox="0 0 1024 1024" version="1.1" xmlns="http://www.w3.org/2000/svg" p-id="28513" xmlns:xlink="http://www.w3.org/1999/xlink" width="200" height="200"><path d="M0 0m113.777778 0l796.444444 0q113.777778 0 113.777778 113.777778l0 796.444444q0 113.777778-113.777778 113.777778l-796.444444 0q-113.777778 0-113.777778-113.777778l0-796.444444q0-113.777778 113.777778-113.777778Z" fill="#CBC69C" p-id="28514"></path><path d="M602.605037 593.313185s5.461333-46.26963 6.788741-49.607111c-2.23763 1.592889-8.457481 4.93037-10.619259 6.637037-13.691259 10.960593-49.872593 14.753185-86.774519 13.767111-36.901926 0.83437-73.083259-2.88237-86.774519-13.767111-2.161778-1.706667-8.38163-5.044148-10.619259-6.637037 1.327407 3.337481 6.826667 49.645037 6.788741 49.607111 1.327407 84.726519-14.108444 96.862815-21.807407 124.738371 24.538074 44.069926 60.150519 86.888296 84.688592 130.958222 5.30963 9.519407 16.801185 11.719111 24.310519 18.621629v3.792593l2.654814 1.289481 0.796445-1.251555 0.796444 1.251555 2.654815-1.289481v-3.792593c7.585185-6.902519 18.962963-9.102222 24.310519-18.621629 24.538074-44.069926 60.150519-86.888296 84.688592-130.958222-7.774815-27.799704-23.210667-40.011852-21.883259-124.738371z" fill="#FED0B9" p-id="28515"></path><path d="M532.517926 758.59437l-11.188148 3.868445-8.040297 50.593185 55.447704-7.812741 25.903408-38.874074-62.122667-7.774815zM491.482074 758.59437l11.188148 3.868445 8.040297 65.763555-74.372741-26.775703-6.978371-35.081482 62.122667-7.774815z" fill="#E1E6E4" p-id="28516"></path><path d="M681.908148 428.183704c-11.681185 5.764741-19.986963 17.21837-25.106963 29.202963 14.677333-64.853333 11.150222-143.625481-46.155852-176.31763-60.150519-34.133333-159.895704-33.033481-211.702518 12.932741-34.133333 30.340741-59.998815 97.28-35.00563 162.398815-5.650963-11.377778-10.277926-28.86163-23.058963-28.065186-40.429037 2.503111-31.326815 51.693037-21.731555 70.162963s27.951407 32.805926 48.583111 33.678223a11.757037 11.757037 0 0 1 7.130074 1.706666 9.860741 9.860741 0 0 1 2.654815 4.702815c10.733037 32.616296 20.707556 59.847111 48.583111 82.337185s65.156741 37.394963 101.906963 31.288889c43.463111-7.205926 87.722667-34.853926 103.348148-77.748148 4.816593-13.274074 3.299556-32.730074 17.559704-40.315259a24.272593 24.272593 0 0 1 8.229926-2.010074c21.200593-3.299556 37.925926-18.773333 47.179851-37.546667a80.971852 80.971852 0 0 0 8.685037-42.666667c-1.592889-17.521778-19.607704-29.354667-31.099259-23.741629z" fill="#FEE1D2" p-id="28517"></path><path d="M809.680593 785.066667c-58.102519-57.457778-154.206815-86.129778-155.496297-82.981926s-44.449185 107.254519-147.114666 107.254518c-109.568 0-135.774815-104.182519-137.102223-107.254518s-97.46963 25.524148-155.496296 82.981926c-55.182222 54.234074-61.477926 190.426074-64.853333 238.933333h724.764444c-3.375407-48.507259-9.671111-184.699259-64.701629-238.933333z" fill="#D1675B" p-id="28518"></path><path d="M654.108444 702.008889c-1.21363 2.844444-44.449185 107.254519-147.114666 107.254518-109.568 0-135.774815-104.182519-137.102222-107.254518-0.493037-1.175704 11.377778 5.30963-8.57126 12.818963 26.548148 66.597926 62.919111 109.037037 142.146371 110.478222 84.80237 1.554963 129.668741-54.08237 154.889481-123.486815-11.529481-3.716741-3.868444-0.644741-4.247704 0.18963z" fill="#E08479" p-id="28519"></path><path d="M522.657185 765.079704c9.709037 6.902519 33.905778 22.034963 80.251259 39.329185a3.565037 3.565037 0 0 0 3.147852-0.303408c7.585185-4.778667 47.672889-25.41037 61.895111-86.243555a25.144889 25.144889 0 0 0-14.601481-29.392593l-37.167407-15.36a3.792593 3.792593 0 0 0-4.437334 1.668741c-6.447407 10.581333-33.071407 50.289778-88.746666 83.13363a4.361481 4.361481 0 0 0-0.341334 7.168zM501.342815 765.079704c-9.709037 6.902519-33.905778 22.034963-80.251259 39.329185a3.565037 3.565037 0 0 1-3.147852-0.303408c-7.585185-4.778667-47.672889-25.41037-61.895111-86.243555a25.144889 25.144889 0 0 1 14.601481-29.392593l37.167407-15.36a3.792593 3.792593 0 0 1 4.437334 1.668741c6.447407 10.581333 33.071407 50.289778 88.746666 83.13363a4.361481 4.361481 0 0 1 0.341334 7.168z" fill="#FFFFFF" p-id="28520"></path><path d="M362.609778 456.400593s15.739259-66.977185 15.777185-67.015112c9.519407-46.117926 56.168296-76.572444 101.18637-62.160592l1.706667 0.568889a60.871111 60.871111 0 0 0 41.073778-1.175704c42.514963-16.877037 89.163852 6.371556 104.713481 48.545185l30.340741 82.223408s8.078222-17.749333 18.962963-25.372445c0 0 44.297481-161.716148-68.266667-214.016-112.033185-51.958519-242.915556-36.370963-266.012444-31.402666a1.896296 1.896296 0 0 0-0.758519 3.034074c6.485333 7.092148 23.058963 49.303704 4.968297 67.432296-22.034963 22.034963-20.821333 141.387852-4.740741 171.121778-0.227556 0.151704 18.128593 11.757037 21.048889 28.216889z" fill="#4C3B31" p-id="28521"></path></svg>