<?xml version="1.0" standalone="no"?><!DOCTYPE svg PUBLIC "-//W3C//DTD SVG 1.1//EN" "http://www.w3.org/Graphics/SVG/1.1/DTD/svg11.dtd"><svg t="1682691253765" class="icon" viewBox="0 0 1024 1024" version="1.1" xmlns="http://www.w3.org/2000/svg" p-id="28858" xmlns:xlink="http://www.w3.org/1999/xlink" width="200" height="200"><path d="M0 0m113.777778 0l796.444444 0q113.777778 0 113.777778 113.777778l0 796.444444q0 113.777778-113.777778 113.777778l-796.444444 0q-113.777778 0-113.777778-113.777778l0-796.444444q0-113.777778 113.777778-113.777778Z" fill="#86A3C4" p-id="28859"></path><path d="M718.354963 518.637037a685.093926 685.093926 0 0 1-11.377778-70.656c-1.327407-15.17037-1.592889-30.340741-5.461333-44.980148-6.561185-24.689778-21.238519-43.652741-23.134815-69.518222-1.820444-24.689778-20.517926-33.640296-39.936-46.345482-20.252444-13.274074-44.676741-24.651852-69.101037-26.548148-46.459259-3.792593-85.978074 32.616296-131.109926 44.411259-18.962963 4.968296-39.708444 5.688889-56.888889 15.625482-12.591407 7.585185-22.755556 18.394074-35.081481 26.055111-11.377778 6.97837-17.749333 8.571259-21.88326 21.617778a226.948741 226.948741 0 0 0-9.595259 52.337777c-4.589037 68.266667-3.792593 137.178074-5.802666 205.520593q-0.796444 24.462222-1.289482 48.886519c0 5.12 2.389333 82.337185-0.758518 83.968 37.470815-19.418074 82.10963-54.08237 124.207407-51.2q68.266667 4.664889 136.533333 6.447407c15.966815 0.417185 31.857778 2.010074 47.824593 2.275556 11.643259 0 25.182815-3.109926 36.636444-0.948149 9.860741 1.896296 12.894815 8.798815 20.821334 13.69126 9.102222 5.613037 26.548148 6.637037 36.636444 3.792592 9.481481-2.503111 13.994667-1.782519 23.627852-0.910222a10.922667 10.922667 0 0 0 10.126222-3.792593 13.653333 13.653333 0 0 0 1.137778-9.367703c-5.461333-45.89037-13.539556-91.022222-16.687407-136.988445a1236.385185 1236.385185 0 0 0-36.560593-223.232c-2.616889-10.164148-5.461333-20.593778-11.984593-28.785778s-17.711407-13.653333-27.648-10.353777" fill="#423B38" p-id="28860"></path><path d="M411.723852 697.53363S261.688889 866.076444 238.478222 1024h553.073778c-18.090667-42.894222-97.545481-227.062519-171.121778-327.49037-1.554963-2.427259-3.792593-5.271704-7.585185-12.022519-9.519407-17.332148-17.256296-82.337185-10.126222-107.785481 2.389333-8.533333 6.788741-22.490074 2.465185-29.999408-8.00237-13.994667-20.48-27.45837-34.133333-32.957629-19.986963-8.00237-33.147259-8.116148-54.802963-5.537186-21.69363-2.578963-34.816-2.465185-54.840889 5.537186-13.653333 5.499259-26.130963 18.962963-34.133334 32.957629-4.323556 7.585185 0 21.466074 2.465186 29.999408 7.130074 25.448296-0.606815 90.453333-10.126223 107.785481-4.096 7.698963-6.219852 10.277926-7.888592 13.046519z" fill="#FECDB4" p-id="28861"></path><path d="M384.379259 528.118519c15.17037 46.155852 50.744889 98.607407 100.200297 118.859851 60.681481 24.727704 110.554074-21.124741 139.07437-66.749629 29.999407-47.93837 32.919704-115.636148 25.296593-169.415111-5.499259-38.760296-19.531852-79.872-54.272-102.4-24.462222-15.777185-56.206222-19.873185-85.788445-15.853037s-57.306074 15.435852-83.626667 28.444444c-24.917333 12.325926-40.656593 37.925926-47.521185 63.563852a132.740741 132.740741 0 0 0-3.527111 32.57837c-0.568889 34.474667-1.251556 75.889778 10.164148 110.97126z" fill="#FEE1D2" p-id="28862"></path><path d="M348.197926 477.37363c13.539556 26.927407 32.047407 50.820741 45.966222 27.799703 7.964444-13.160296 2.199704-31.364741-2.427259-44.562963-4.096-11.605333-5.30963-29.127111-12.325926-39.025777-11.908741-16.877037-54.044444-18.962963-49.000296 9.709037a235.140741 235.140741 0 0 0 17.787259 46.08zM681.566815 477.37363c-13.50163 26.927407-32.047407 50.820741-45.966222 27.799703-7.964444-13.160296-2.199704-31.364741 2.465185-44.562963 4.058074-11.605333 5.30963-29.127111 12.288-39.025777 11.946667-16.877037 54.044444-18.962963 49.000296 9.709037a232.561778 232.561778 0 0 1-17.787259 46.08z" fill="#FEE1D2" p-id="28863"></path><path d="M688.924444 336.858074a86.622815 86.622815 0 0 1 0.834371 22.755556c-0.986074 8.419556-7.016296 15.435852-9.860741 23.324444a83.437037 83.437037 0 0 1-14.715259 27.799704q-1.934222 2.313481-3.792593 4.778666c-5.688889 8.078222-9.443556 16.877037-14.715259 25.486223 0.758519-36.105481-17.787259-68.077037-36.02963-97.962667-11.112296-18.204444-24.082963-35.764148-29.733926-56.32-11.643259 13.767111-31.364741 28.937481-46.155851 39.442963a785.483852 785.483852 0 0 1-96.786963 58.292148c-24.538074 12.47763-67.659852 20.821333-67.166815 55.675259A49.607111 49.607111 0 0 0 348.918519 412.254815a39.177481 39.177481 0 0 0-21.390223-4.437334c-5.840593 0-7.585185 2.389333-9.102222-6.257777a64.246519 64.246519 0 0 1 0.948148-18.052741A247.770074 247.770074 0 0 1 337.540741 313.799111c18.659556-44.297481 50.403556-83.892148 92.539259-107.70963a157.658074 157.658074 0 0 1 77.027556-20.48c15.928889 0 30.340741 0.265481 46.004148 5.157926a73.424593 73.424593 0 0 1 30.34074 19.949037 6.181926 6.181926 0 0 0 2.465186 2.085926 5.650963 5.650963 0 0 0 3.072 0 59.429926 59.429926 0 0 1 37.091555 5.271704c64.018963 34.133333 77.217185 137.367704 77.672296 201.879704A383.279407 383.279407 0 0 1 672.085333 345.125926" fill="#423B38" p-id="28864"></path><path d="M391.130074 745.775407h220.99437V1024h-220.99437z" fill="#E2E6E6" p-id="28865"></path><path d="M324.759704 703.488c11.377778-3.982222 20.973037-10.088296 31.706074-15.17037 8.874667-4.096 17.294222-5.95437 26.168889-10.998519a29.430519 29.430519 0 0 1 18.962963-4.778667 5.423407 5.423407 0 0 1 2.541037 1.061926 6.219852 6.219852 0 0 1 1.630814 4.171852l3.413334 28.672 50.213926 283.685926c4.020148 10.467556 16.57363 21.541926 16.080592 33.716148H143.094519c6.637037-57.306074 12.932741-114.763852 17.408-172.411259 2.730667-34.702222 5.726815-72.666074 29.771851-97.848889 17.863111-18.697481 44.032-26.548148 69.101037-32.957629 21.276444-5.30963 44.032-9.633185 65.384297-17.142519z" fill="#404863" p-id="28866"></path><path d="M426.021926 646.599111c-0.606815 26.548148 13.577481 52.868741 36.67437 72.362667a136.798815 136.798815 0 0 0 40.808297 23.552c3.792593 1.327407 15.17037 1.934222 12.325926 6.864592a10.770963 10.770963 0 0 1-4.28563 3.375408 94.814815 94.814815 0 0 0-26.548148 24.120889c-7.812741 9.443556-16.763259 17.938963-24.576 27.306666a12.553481 12.553481 0 0 1-7.054222 5.12c-5.157926 1.024-4.816593-2.465185-6.068149-4.513185a81.275259 81.275259 0 0 0-7.585185-10.202074l-19.152592-22.33837c-11.112296-12.970667-22.33837-26.130963-28.709926-40.922074s-7.585185-31.668148 1.630814-45.511111c8.229926-12.705185 24.082963-21.959111 30.833778-35.19526" fill="#F3F9FE" p-id="28867"></path><path d="M609.014519 646.599111c0.606815 25.486222-12.325926 50.555259-33.602371 69.707852a134.826667 134.826667 0 0 1-38.267259 24.007111c-5.726815 2.351407-12.932741 2.541037-18.318222 5.537185-8.722963 4.854519 7.395556 8.874667 11.719111 11.605334 21.086815 13.387852 34.133333 31.364741 46.800592 49.910518a4.664889 4.664889 0 0 0 5.49926 1.85837 4.513185 4.513185 0 0 0 1.213629-1.403259 136.267852 136.267852 0 0 1 13.387852-17.408c5.992296-5.802667 11.794963-12.09837 17.104593-18.318222 11.112296-12.970667 22.33837-26.130963 28.709926-40.922074s7.585185-31.668148-1.592889-45.511111c-8.267852-12.705185-24.082963-21.959111-30.871704-35.195259" fill="#F3F9FE" p-id="28868"></path><path d="M477.639111 997.451852q-6.371556-29.165037-11.946667-58.481778c-15.17037-79.151407-25.6-159.023407-34.133333-238.933333-2.010074-19.304296 0.568889-38.836148-1.441185-57.912889 0-0.568889 0-0.644741-0.530963-0.948148-1.403259-0.83437-17.21837 14.563556-19.493926 16.421926-8.267852 6.750815-17.256296 12.553481-26.017185 18.659555a404.100741 404.100741 0 0 0-62.160593 53.968593c-3.792593 4.020148-4.740741 6.902519-4.020148 9.140148 1.289481 3.982222 8.078222 5.916444 14.336 8.457481 5.006222 2.010074 9.671111 5.537185 14.52563 7.964445 3.792593 1.934222 27.989333 15.36 31.326815 12.932741a217.581037 217.581037 0 0 1-66.825482 32.919703C322.37037 864.711111 378.652444 956.946963 399.890963 1024H485.451852c-2.844444-9.671111-6.181926-18.962963-7.812741-26.548148z" fill="#373952" p-id="28869"></path><path d="M706.939259 703.488c-11.377778-3.982222-21.010963-10.088296-31.706074-15.17037-8.874667-4.096-17.294222-5.95437-26.206815-10.998519a29.240889 29.240889 0 0 0-18.962963-4.778667 5.764741 5.764741 0 0 0-2.578963 1.061926 6.371556 6.371556 0 0 0-1.592888 4.171852q-1.706667 14.336-3.45126 28.672l-50.176 283.685926c-4.058074 10.467556-16.611556 21.541926-16.080592 33.716148h332.42074c-6.674963-57.306074-12.932741-114.763852-17.445925-172.411259-2.692741-34.702222-5.726815-72.666074-29.733926-97.848889-17.901037-18.697481-44.032-26.548148-69.138963-32.957629-21.352296-5.30963-44.107852-9.633185-65.346371-17.142519z" fill="#404863" p-id="28870"></path><path d="M713.310815 738.872889c-18.280296-13.653333-33.829926-30.340741-49.569185-46.421333-16.914963-17.483852-37.546667-32.009481-56.888889-47.066075-0.986074-0.796444-3.565037-3.034074-3.792593-1.820444 0 5.006222-1.099852 9.102222-1.592889 13.615407-0.872296 8.192-1.782519 16.384-2.654815 24.576-1.85837 16.839111-3.792593 33.716148-5.233777 50.593186-7.888593 86.395259-36.901926 203.131259-49.834667 291.65037h81.464889c18.204444-67.090963 84.043852-155.723852 95.459555-222.359704a217.163852 217.163852 0 0 1-66.825481-32.919703 213.105778 213.105778 0 0 0 59.467852-29.847704z" fill="#373952" p-id="28871"></path><path d="M518.030222 792.424296m-17.028741 0a17.028741 17.028741 0 1 0 34.057482 0 17.028741 17.028741 0 1 0-34.057482 0Z" fill="#404863" p-id="28872"></path></svg>